<svg xmlns="http://www.w3.org/2000/svg" xmlns:xlink="http://www.w3.org/1999/xlink" width="500" zoomAndPan="magnify" viewBox="0 0 375 374.999991" height="500" preserveAspectRatio="xMidYMid meet" version="1.0"><defs><g/><clipPath id="88ca226da3"><path d="M 337.5 198 L 348.421875 198 L 348.421875 208.921875 L 337.5 208.921875 Z M 337.5 198 " clip-rule="nonzero"/></clipPath><clipPath id="520469f919"><path d="M 342.960938 198 C 339.945312 198 337.5 200.445312 337.5 203.460938 C 337.5 206.476562 339.945312 208.921875 342.960938 208.921875 C 345.976562 208.921875 348.421875 206.476562 348.421875 203.460938 C 348.421875 200.445312 345.976562 198 342.960938 198 Z M 342.960938 198 " clip-rule="nonzero"/></clipPath><clipPath id="9f3d790f53"><path d="M 23.15625 153.390625 L 88 153.390625 L 88 221.640625 L 23.15625 221.640625 Z M 23.15625 153.390625 " clip-rule="nonzero"/></clipPath><clipPath id="ebfd5e38c8"><path d="M 60.484375 185.171875 L 31.480469 185.171875 C 30.355469 185.171875 29.539062 184.101562 29.84375 183.015625 L 37.808594 154.640625 C 38.011719 153.90625 38.679688 153.398438 39.441406 153.398438 L 68.445312 153.398438 C 69.570312 153.398438 70.386719 154.472656 70.082031 155.558594 L 62.117188 183.933594 C 61.914062 184.667969 61.246094 185.171875 60.484375 185.171875 Z M 41.644531 206.59375 L 45.746094 191.984375 C 46.046875 190.898438 45.234375 189.824219 44.109375 189.824219 L 29.199219 189.824219 C 28.4375 189.824219 27.769531 190.332031 27.566406 191.066406 L 23.464844 205.675781 C 23.160156 206.757812 23.976562 207.832031 25.101562 207.832031 L 40.011719 207.832031 C 40.769531 207.832031 41.4375 207.328125 41.644531 206.59375 Z M 49.191406 191.066406 L 41.226562 219.441406 C 40.921875 220.527344 41.738281 221.597656 42.863281 221.597656 L 71.867188 221.597656 C 72.628906 221.597656 73.296875 221.09375 73.5 220.359375 L 81.464844 191.984375 C 81.765625 190.898438 80.953125 189.824219 79.828125 189.824219 L 50.824219 189.824219 C 50.0625 189.824219 49.394531 190.332031 49.191406 191.066406 Z M 69.664062 168.40625 L 65.5625 183.015625 C 65.257812 184.101562 66.074219 185.171875 67.199219 185.171875 L 82.109375 185.171875 C 82.867188 185.171875 83.539062 184.667969 83.742188 183.933594 L 87.84375 169.324219 C 88.148438 168.238281 87.332031 167.167969 86.207031 167.167969 L 71.296875 167.167969 C 70.535156 167.167969 69.867188 167.671875 69.664062 168.40625 Z M 69.664062 168.40625 " clip-rule="nonzero"/></clipPath><linearGradient x1="114.296443" gradientTransform="matrix(0.136399, 0, 0, 0.136399, 23.401259, 153.400056)" y1="-47.633967" x2="358.62183" gradientUnits="userSpaceOnUse" y2="547.633969" id="3816f59db5"><stop stop-opacity="1" stop-color="rgb(0%, 5.499268%, 77.2995%)" offset="0"/><stop stop-opacity="1" stop-color="rgb(0%, 5.499268%, 77.2995%)" offset="0.0625"/><stop stop-opacity="1" stop-color="rgb(0.0213623%, 5.654907%, 77.34375%)" offset="0.09375"/><stop stop-opacity="1" stop-color="rgb(0.100708%, 6.233215%, 77.507019%)" offset="0.0976562"/><stop stop-opacity="1" stop-color="rgb(0.158691%, 6.654358%, 77.627563%)" offset="0.101562"/><stop stop-opacity="1" stop-color="rgb(0.216675%, 7.0755%, 77.746582%)" offset="0.105469"/><stop stop-opacity="1" stop-color="rgb(0.274658%, 7.498169%, 77.867126%)" offset="0.109375"/><stop stop-opacity="1" stop-color="rgb(0.332642%, 7.919312%, 77.986145%)" offset="0.113281"/><stop stop-opacity="1" stop-color="rgb(0.390625%, 8.34198%, 78.105164%)" offset="0.117187"/><stop stop-opacity="1" stop-color="rgb(0.448608%, 8.763123%, 78.224182%)" offset="0.121094"/><stop stop-opacity="1" stop-color="rgb(0.506592%, 9.184265%, 78.344727%)" offset="0.125"/><stop stop-opacity="1" stop-color="rgb(0.564575%, 9.605408%, 78.463745%)" offset="0.128906"/><stop stop-opacity="1" stop-color="rgb(0.622559%, 10.028076%, 78.58429%)" offset="0.132812"/><stop stop-opacity="1" stop-color="rgb(0.680542%, 10.449219%, 78.703308%)" offset="0.136719"/><stop stop-opacity="1" stop-color="rgb(0.738525%, 10.870361%, 78.823853%)" offset="0.140625"/><stop stop-opacity="1" stop-color="rgb(0.796509%, 11.291504%, 78.942871%)" offset="0.144531"/><stop stop-opacity="1" stop-color="rgb(0.854492%, 11.714172%, 79.063416%)" offset="0.148437"/><stop stop-opacity="1" stop-color="rgb(0.912476%, 12.135315%, 79.182434%)" offset="0.152344"/><stop stop-opacity="1" stop-color="rgb(0.970459%, 12.557983%, 79.301453%)" offset="0.15625"/><stop stop-opacity="1" stop-color="rgb(1.028442%, 12.979126%, 79.420471%)" offset="0.160156"/><stop stop-opacity="1" stop-color="rgb(1.086426%, 13.400269%, 79.541016%)" offset="0.164062"/><stop stop-opacity="1" stop-color="rgb(1.142883%, 13.821411%, 79.660034%)" offset="0.167969"/><stop stop-opacity="1" stop-color="rgb(1.200867%, 14.24408%, 79.780579%)" offset="0.171875"/><stop stop-opacity="1" stop-color="rgb(1.25885%, 14.665222%, 79.899597%)" offset="0.175781"/><stop stop-opacity="1" stop-color="rgb(1.316833%, 15.087891%, 80.020142%)" offset="0.179687"/><stop stop-opacity="1" stop-color="rgb(1.374817%, 15.509033%, 80.13916%)" offset="0.183594"/><stop stop-opacity="1" stop-color="rgb(1.4328%, 15.930176%, 80.259705%)" offset="0.1875"/><stop stop-opacity="1" stop-color="rgb(1.490784%, 16.351318%, 80.378723%)" offset="0.191406"/><stop stop-opacity="1" stop-color="rgb(1.548767%, 16.773987%, 80.497742%)" offset="0.195312"/><stop stop-opacity="1" stop-color="rgb(1.60675%, 17.195129%, 80.61676%)" offset="0.199219"/><stop stop-opacity="1" stop-color="rgb(1.664734%, 17.616272%, 80.737305%)" offset="0.203125"/><stop stop-opacity="1" stop-color="rgb(1.722717%, 18.037415%, 80.856323%)" offset="0.207031"/><stop stop-opacity="1" stop-color="rgb(1.780701%, 18.460083%, 80.976868%)" offset="0.210937"/><stop stop-opacity="1" stop-color="rgb(1.838684%, 18.881226%, 81.095886%)" offset="0.214844"/><stop stop-opacity="1" stop-color="rgb(1.896667%, 19.303894%, 81.216431%)" offset="0.21875"/><stop stop-opacity="1" stop-color="rgb(1.954651%, 19.725037%, 81.335449%)" offset="0.222656"/><stop stop-opacity="1" stop-color="rgb(2.012634%, 20.146179%, 81.455994%)" offset="0.226562"/><stop stop-opacity="1" stop-color="rgb(2.070618%, 20.567322%, 81.575012%)" offset="0.230469"/><stop stop-opacity="1" stop-color="rgb(2.128601%, 20.98999%, 81.694031%)" offset="0.234375"/><stop stop-opacity="1" stop-color="rgb(2.186584%, 21.411133%, 81.813049%)" offset="0.238281"/><stop stop-opacity="1" stop-color="rgb(2.244568%, 21.832275%, 81.933594%)" offset="0.242188"/><stop stop-opacity="1" stop-color="rgb(2.302551%, 22.253418%, 82.052612%)" offset="0.246094"/><stop stop-opacity="1" stop-color="rgb(2.360535%, 22.676086%, 82.173157%)" offset="0.25"/><stop stop-opacity="1" stop-color="rgb(2.418518%, 23.097229%, 82.292175%)" offset="0.253906"/><stop stop-opacity="1" stop-color="rgb(2.476501%, 23.519897%, 82.41272%)" offset="0.257812"/><stop stop-opacity="1" stop-color="rgb(2.534485%, 23.94104%, 82.531738%)" offset="0.261719"/><stop stop-opacity="1" stop-color="rgb(2.592468%, 24.362183%, 82.652283%)" offset="0.265625"/><stop stop-opacity="1" stop-color="rgb(2.650452%, 24.783325%, 82.771301%)" offset="0.269531"/><stop stop-opacity="1" stop-color="rgb(2.708435%, 25.205994%, 82.89032%)" offset="0.273437"/><stop stop-opacity="1" stop-color="rgb(2.766418%, 25.627136%, 83.009338%)" offset="0.277344"/><stop stop-opacity="1" stop-color="rgb(2.824402%, 26.049805%, 83.129883%)" offset="0.28125"/><stop stop-opacity="1" stop-color="rgb(2.882385%, 26.470947%, 83.248901%)" offset="0.285156"/><stop stop-opacity="1" stop-color="rgb(2.940369%, 26.89209%, 83.369446%)" offset="0.289062"/><stop stop-opacity="1" stop-color="rgb(2.998352%, 27.313232%, 83.488464%)" offset="0.292969"/><stop stop-opacity="1" stop-color="rgb(3.056335%, 27.735901%, 83.609009%)" offset="0.296875"/><stop stop-opacity="1" stop-color="rgb(3.114319%, 28.157043%, 83.728027%)" offset="0.300781"/><stop stop-opacity="1" stop-color="rgb(3.172302%, 28.578186%, 83.848572%)" offset="0.304687"/><stop stop-opacity="1" stop-color="rgb(3.230286%, 28.999329%, 83.96759%)" offset="0.308594"/><stop stop-opacity="1" stop-color="rgb(3.288269%, 29.421997%, 84.086609%)" offset="0.3125"/><stop stop-opacity="1" stop-color="rgb(3.346252%, 29.84314%, 84.205627%)" offset="0.316406"/><stop stop-opacity="1" stop-color="rgb(3.404236%, 30.265808%, 84.326172%)" offset="0.320312"/><stop stop-opacity="1" stop-color="rgb(3.462219%, 30.686951%, 84.44519%)" offset="0.324219"/><stop stop-opacity="1" stop-color="rgb(3.520203%, 31.108093%, 84.565735%)" offset="0.328125"/><stop stop-opacity="1" stop-color="rgb(3.578186%, 31.529236%, 84.684753%)" offset="0.332031"/><stop stop-opacity="1" stop-color="rgb(3.636169%, 31.951904%, 84.805298%)" offset="0.335937"/><stop stop-opacity="1" stop-color="rgb(3.694153%, 32.373047%, 84.924316%)" offset="0.339844"/><stop stop-opacity="1" stop-color="rgb(3.752136%, 32.795715%, 85.044861%)" offset="0.34375"/><stop stop-opacity="1" stop-color="rgb(3.81012%, 33.216858%, 85.163879%)" offset="0.347656"/><stop stop-opacity="1" stop-color="rgb(3.868103%, 33.638%, 85.284424%)" offset="0.351562"/><stop stop-opacity="1" stop-color="rgb(3.926086%, 34.059143%, 85.403442%)" offset="0.355469"/><stop stop-opacity="1" stop-color="rgb(3.98407%, 34.481812%, 85.522461%)" offset="0.359375"/><stop stop-opacity="1" stop-color="rgb(4.042053%, 34.902954%, 85.641479%)" offset="0.363281"/><stop stop-opacity="1" stop-color="rgb(4.100037%, 35.324097%, 85.762024%)" offset="0.367187"/><stop stop-opacity="1" stop-color="rgb(4.15802%, 35.745239%, 85.881042%)" offset="0.371094"/><stop stop-opacity="1" stop-color="rgb(4.216003%, 36.167908%, 86.001587%)" offset="0.375"/><stop stop-opacity="1" stop-color="rgb(4.273987%, 36.58905%, 86.120605%)" offset="0.378906"/><stop stop-opacity="1" stop-color="rgb(4.33197%, 37.011719%, 86.24115%)" offset="0.382812"/><stop stop-opacity="1" stop-color="rgb(4.389954%, 37.432861%, 86.360168%)" offset="0.386719"/><stop stop-opacity="1" stop-color="rgb(4.447937%, 37.854004%, 86.480713%)" offset="0.390625"/><stop stop-opacity="1" stop-color="rgb(4.50592%, 38.275146%, 86.599731%)" offset="0.394531"/><stop stop-opacity="1" stop-color="rgb(4.563904%, 38.697815%, 86.71875%)" offset="0.398437"/><stop stop-opacity="1" stop-color="rgb(4.621887%, 39.118958%, 86.837769%)" offset="0.402344"/><stop stop-opacity="1" stop-color="rgb(4.679871%, 39.541626%, 86.958313%)" offset="0.40625"/><stop stop-opacity="1" stop-color="rgb(4.737854%, 39.962769%, 87.077332%)" offset="0.410156"/><stop stop-opacity="1" stop-color="rgb(4.795837%, 40.383911%, 87.197876%)" offset="0.414062"/><stop stop-opacity="1" stop-color="rgb(4.853821%, 40.805054%, 87.316895%)" offset="0.417969"/><stop stop-opacity="1" stop-color="rgb(4.911804%, 41.227722%, 87.437439%)" offset="0.421875"/><stop stop-opacity="1" stop-color="rgb(4.969788%, 41.648865%, 87.556458%)" offset="0.425781"/><stop stop-opacity="1" stop-color="rgb(5.027771%, 42.070007%, 87.677002%)" offset="0.429687"/><stop stop-opacity="1" stop-color="rgb(5.085754%, 42.49115%, 87.796021%)" offset="0.433594"/><stop stop-opacity="1" stop-color="rgb(5.143738%, 42.913818%, 87.915039%)" offset="0.4375"/><stop stop-opacity="1" stop-color="rgb(5.201721%, 43.334961%, 88.034058%)" offset="0.441406"/><stop stop-opacity="1" stop-color="rgb(5.259705%, 43.757629%, 88.154602%)" offset="0.445312"/><stop stop-opacity="1" stop-color="rgb(5.317688%, 44.178772%, 88.273621%)" offset="0.449219"/><stop stop-opacity="1" stop-color="rgb(5.375671%, 44.599915%, 88.394165%)" offset="0.453125"/><stop stop-opacity="1" stop-color="rgb(5.433655%, 45.021057%, 88.513184%)" offset="0.457031"/><stop stop-opacity="1" stop-color="rgb(5.491638%, 45.443726%, 88.633728%)" offset="0.460938"/><stop stop-opacity="1" stop-color="rgb(5.549622%, 45.864868%, 88.752747%)" offset="0.464844"/><stop stop-opacity="1" stop-color="rgb(5.607605%, 46.287537%, 88.873291%)" offset="0.46875"/><stop stop-opacity="1" stop-color="rgb(5.665588%, 46.708679%, 88.99231%)" offset="0.472656"/><stop stop-opacity="1" stop-color="rgb(5.723572%, 47.129822%, 89.111328%)" offset="0.476562"/><stop stop-opacity="1" stop-color="rgb(5.781555%, 47.550964%, 89.230347%)" offset="0.480469"/><stop stop-opacity="1" stop-color="rgb(5.839539%, 47.973633%, 89.350891%)" offset="0.484375"/><stop stop-opacity="1" stop-color="rgb(5.897522%, 48.394775%, 89.46991%)" offset="0.488281"/><stop stop-opacity="1" stop-color="rgb(5.955505%, 48.815918%, 89.590454%)" offset="0.492188"/><stop stop-opacity="1" stop-color="rgb(6.013489%, 49.237061%, 89.709473%)" offset="0.496094"/><stop stop-opacity="1" stop-color="rgb(6.071472%, 49.659729%, 89.830017%)" offset="0.5"/><stop stop-opacity="1" stop-color="rgb(6.129456%, 50.080872%, 89.949036%)" offset="0.503906"/><stop stop-opacity="1" stop-color="rgb(6.187439%, 50.50354%, 90.06958%)" offset="0.507812"/><stop stop-opacity="1" stop-color="rgb(6.245422%, 50.924683%, 90.188599%)" offset="0.511719"/><stop stop-opacity="1" stop-color="rgb(6.303406%, 51.345825%, 90.307617%)" offset="0.515625"/><stop stop-opacity="1" stop-color="rgb(6.361389%, 51.766968%, 90.426636%)" offset="0.519531"/><stop stop-opacity="1" stop-color="rgb(6.419373%, 52.189636%, 90.54718%)" offset="0.523437"/><stop stop-opacity="1" stop-color="rgb(6.477356%, 52.610779%, 90.666199%)" offset="0.527344"/><stop stop-opacity="1" stop-color="rgb(6.535339%, 53.033447%, 90.786743%)" offset="0.53125"/><stop stop-opacity="1" stop-color="rgb(6.593323%, 53.45459%, 90.905762%)" offset="0.535156"/><stop stop-opacity="1" stop-color="rgb(6.651306%, 53.875732%, 91.026306%)" offset="0.539062"/><stop stop-opacity="1" stop-color="rgb(6.70929%, 54.296875%, 91.145325%)" offset="0.542969"/><stop stop-opacity="1" stop-color="rgb(6.767273%, 54.719543%, 91.265869%)" offset="0.546875"/><stop stop-opacity="1" stop-color="rgb(6.825256%, 55.140686%, 91.384888%)" offset="0.550781"/><stop stop-opacity="1" stop-color="rgb(6.88324%, 55.561829%, 91.503906%)" offset="0.554688"/><stop stop-opacity="1" stop-color="rgb(6.941223%, 55.982971%, 91.622925%)" offset="0.558594"/><stop stop-opacity="1" stop-color="rgb(6.999207%, 56.40564%, 91.743469%)" offset="0.5625"/><stop stop-opacity="1" stop-color="rgb(7.05719%, 56.826782%, 91.862488%)" offset="0.566406"/><stop stop-opacity="1" stop-color="rgb(7.115173%, 57.249451%, 91.983032%)" offset="0.570312"/><stop stop-opacity="1" stop-color="rgb(7.173157%, 57.670593%, 92.102051%)" offset="0.574219"/><stop stop-opacity="1" stop-color="rgb(7.23114%, 58.091736%, 92.222595%)" offset="0.578125"/><stop stop-opacity="1" stop-color="rgb(7.289124%, 58.512878%, 92.341614%)" offset="0.582031"/><stop stop-opacity="1" stop-color="rgb(7.347107%, 58.935547%, 92.462158%)" offset="0.585938"/><stop stop-opacity="1" stop-color="rgb(7.40509%, 59.356689%, 92.581177%)" offset="0.589844"/><stop stop-opacity="1" stop-color="rgb(7.463074%, 59.779358%, 92.701721%)" offset="0.59375"/><stop stop-opacity="1" stop-color="rgb(7.521057%, 60.2005%, 92.82074%)" offset="0.597656"/><stop stop-opacity="1" stop-color="rgb(7.579041%, 60.621643%, 92.939758%)" offset="0.601562"/><stop stop-opacity="1" stop-color="rgb(7.637024%, 61.042786%, 93.058777%)" offset="0.605469"/><stop stop-opacity="1" stop-color="rgb(7.695007%, 61.465454%, 93.179321%)" offset="0.609375"/><stop stop-opacity="1" stop-color="rgb(7.752991%, 61.886597%, 93.29834%)" offset="0.613281"/><stop stop-opacity="1" stop-color="rgb(7.810974%, 62.307739%, 93.418884%)" offset="0.617187"/><stop stop-opacity="1" stop-color="rgb(7.868958%, 62.728882%, 93.537903%)" offset="0.621094"/><stop stop-opacity="1" stop-color="rgb(7.926941%, 63.15155%, 93.658447%)" offset="0.625"/><stop stop-opacity="1" stop-color="rgb(7.984924%, 63.572693%, 93.777466%)" offset="0.628906"/><stop stop-opacity="1" stop-color="rgb(8.042908%, 63.995361%, 93.89801%)" offset="0.632812"/><stop stop-opacity="1" stop-color="rgb(8.100891%, 64.416504%, 94.017029%)" offset="0.636719"/><stop stop-opacity="1" stop-color="rgb(8.158875%, 64.837646%, 94.136047%)" offset="0.640625"/><stop stop-opacity="1" stop-color="rgb(8.216858%, 65.258789%, 94.255066%)" offset="0.644531"/><stop stop-opacity="1" stop-color="rgb(8.274841%, 65.681458%, 94.37561%)" offset="0.648437"/><stop stop-opacity="1" stop-color="rgb(8.332825%, 66.1026%, 94.494629%)" offset="0.652344"/><stop stop-opacity="1" stop-color="rgb(8.390808%, 66.523743%, 94.615173%)" offset="0.65625"/><stop stop-opacity="1" stop-color="rgb(8.448792%, 66.944885%, 94.734192%)" offset="0.660156"/><stop stop-opacity="1" stop-color="rgb(8.506775%, 67.367554%, 94.854736%)" offset="0.664062"/><stop stop-opacity="1" stop-color="rgb(8.564758%, 67.788696%, 94.973755%)" offset="0.667969"/><stop stop-opacity="1" stop-color="rgb(8.622742%, 68.211365%, 95.094299%)" offset="0.671875"/><stop stop-opacity="1" stop-color="rgb(8.680725%, 68.632507%, 95.213318%)" offset="0.675781"/><stop stop-opacity="1" stop-color="rgb(8.738708%, 69.05365%, 95.332336%)" offset="0.679688"/><stop stop-opacity="1" stop-color="rgb(8.796692%, 69.474792%, 95.451355%)" offset="0.683594"/><stop stop-opacity="1" stop-color="rgb(8.854675%, 69.897461%, 95.571899%)" offset="0.6875"/><stop stop-opacity="1" stop-color="rgb(8.912659%, 70.318604%, 95.690918%)" offset="0.691406"/><stop stop-opacity="1" stop-color="rgb(8.970642%, 70.741272%, 95.811462%)" offset="0.695312"/><stop stop-opacity="1" stop-color="rgb(9.028625%, 71.162415%, 95.930481%)" offset="0.699219"/><stop stop-opacity="1" stop-color="rgb(9.086609%, 71.583557%, 96.051025%)" offset="0.703125"/><stop stop-opacity="1" stop-color="rgb(9.144592%, 72.0047%, 96.170044%)" offset="0.707031"/><stop stop-opacity="1" stop-color="rgb(9.202576%, 72.427368%, 96.290588%)" offset="0.710937"/><stop stop-opacity="1" stop-color="rgb(9.259033%, 72.848511%, 96.409607%)" offset="0.714844"/><stop stop-opacity="1" stop-color="rgb(9.317017%, 73.269653%, 96.528625%)" offset="0.71875"/><stop stop-opacity="1" stop-color="rgb(9.375%, 73.690796%, 96.647644%)" offset="0.722656"/><stop stop-opacity="1" stop-color="rgb(9.432983%, 74.113464%, 96.768188%)" offset="0.726562"/><stop stop-opacity="1" stop-color="rgb(9.490967%, 74.534607%, 96.887207%)" offset="0.730469"/><stop stop-opacity="1" stop-color="rgb(9.54895%, 74.957275%, 97.007751%)" offset="0.734375"/><stop stop-opacity="1" stop-color="rgb(9.606934%, 75.378418%, 97.12677%)" offset="0.738281"/><stop stop-opacity="1" stop-color="rgb(9.664917%, 75.799561%, 97.247314%)" offset="0.742187"/><stop stop-opacity="1" stop-color="rgb(9.7229%, 76.220703%, 97.366333%)" offset="0.746094"/><stop stop-opacity="1" stop-color="rgb(9.780884%, 76.643372%, 97.486877%)" offset="0.75"/><stop stop-opacity="1" stop-color="rgb(9.838867%, 77.064514%, 97.605896%)" offset="0.753906"/><stop stop-opacity="1" stop-color="rgb(9.896851%, 77.487183%, 97.724915%)" offset="0.757812"/><stop stop-opacity="1" stop-color="rgb(9.954834%, 77.908325%, 97.843933%)" offset="0.761719"/><stop stop-opacity="1" stop-color="rgb(10.012817%, 78.329468%, 97.964478%)" offset="0.765625"/><stop stop-opacity="1" stop-color="rgb(10.070801%, 78.75061%, 98.083496%)" offset="0.769531"/><stop stop-opacity="1" stop-color="rgb(10.128784%, 79.173279%, 98.204041%)" offset="0.773438"/><stop stop-opacity="1" stop-color="rgb(10.186768%, 79.594421%, 98.323059%)" offset="0.777344"/><stop stop-opacity="1" stop-color="rgb(10.244751%, 80.015564%, 98.443604%)" offset="0.78125"/><stop stop-opacity="1" stop-color="rgb(10.302734%, 80.436707%, 98.562622%)" offset="0.785156"/><stop stop-opacity="1" stop-color="rgb(10.360718%, 80.859375%, 98.683167%)" offset="0.789062"/><stop stop-opacity="1" stop-color="rgb(10.418701%, 81.280518%, 98.802185%)" offset="0.792969"/><stop stop-opacity="1" stop-color="rgb(10.476685%, 81.703186%, 98.922729%)" offset="0.796875"/><stop stop-opacity="1" stop-color="rgb(10.534668%, 82.124329%, 99.041748%)" offset="0.800781"/><stop stop-opacity="1" stop-color="rgb(10.592651%, 82.545471%, 99.160767%)" offset="0.804688"/><stop stop-opacity="1" stop-color="rgb(10.650635%, 82.966614%, 99.279785%)" offset="0.808594"/><stop stop-opacity="1" stop-color="rgb(10.708618%, 83.389282%, 99.40033%)" offset="0.8125"/><stop stop-opacity="1" stop-color="rgb(10.766602%, 83.810425%, 99.519348%)" offset="0.816406"/><stop stop-opacity="1" stop-color="rgb(10.824585%, 84.233093%, 99.639893%)" offset="0.820312"/><stop stop-opacity="1" stop-color="rgb(10.882568%, 84.654236%, 99.758911%)" offset="0.824219"/><stop stop-opacity="1" stop-color="rgb(10.940552%, 85.075378%, 99.879456%)" offset="0.828125"/><stop stop-opacity="1" stop-color="rgb(10.969543%, 85.287476%, 99.938965%)" offset="0.832031"/><stop stop-opacity="1" stop-color="rgb(10.998535%, 85.499573%, 100%)" offset="0.835937"/><stop stop-opacity="1" stop-color="rgb(10.998535%, 85.499573%, 100%)" offset="0.84375"/><stop stop-opacity="1" stop-color="rgb(10.998535%, 85.499573%, 100%)" offset="0.875"/><stop stop-opacity="1" stop-color="rgb(10.998535%, 85.499573%, 100%)" offset="1"/></linearGradient></defs><g fill="#000000" fill-opacity="1"><g transform="translate(97.170349, 201.017872)"><g><path d="M 4.671875 0.171875 C 4.253906 0.171875 3.898438 0.03125 3.609375 -0.25 C 3.328125 -0.539062 3.1875 -0.894531 3.1875 -1.3125 L 3.1875 -20.96875 C 3.1875 -21.5625 3.394531 -22.070312 3.8125 -22.5 C 4.226562 -22.925781 4.734375 -23.140625 5.328125 -23.140625 L 5.765625 -23.140625 C 6.460938 -23.140625 7.066406 -22.8125 7.578125 -22.15625 L 20.25 -3.859375 L 20.25 -21.625 C 20.25 -22.039062 20.390625 -22.394531 20.671875 -22.6875 C 20.960938 -22.988281 21.316406 -23.140625 21.734375 -23.140625 C 22.148438 -23.140625 22.503906 -22.988281 22.796875 -22.6875 C 23.097656 -22.394531 23.25 -22.039062 23.25 -21.625 L 23.25 -1.96875 C 23.25 -1.382812 23.03125 -0.878906 22.59375 -0.453125 C 22.164062 -0.0351562 21.65625 0.171875 21.0625 0.171875 L 20.671875 0.171875 C 20.316406 0.171875 19.984375 0.0859375 19.671875 -0.078125 C 19.367188 -0.242188 19.125 -0.457031 18.9375 -0.71875 L 6.1875 -19.125 L 6.1875 -1.3125 C 6.1875 -0.894531 6.035156 -0.539062 5.734375 -0.25 C 5.441406 0.03125 5.085938 0.171875 4.671875 0.171875 Z M 4.671875 0.171875 "/></g></g></g><g fill="#000000" fill-opacity="1"><g transform="translate(123.603532, 201.017872)"><g><path d="M 4.671875 0 C 4.253906 0 3.898438 -0.140625 3.609375 -0.421875 C 3.328125 -0.710938 3.1875 -1.066406 3.1875 -1.484375 L 3.1875 -21.46875 C 3.1875 -21.882812 3.328125 -22.238281 3.609375 -22.53125 C 3.898438 -22.832031 4.253906 -22.984375 4.671875 -22.984375 L 17.875 -22.984375 C 18.269531 -22.984375 18.601562 -22.84375 18.875 -22.5625 C 19.15625 -22.289062 19.296875 -21.957031 19.296875 -21.5625 C 19.296875 -21.164062 19.15625 -20.835938 18.875 -20.578125 C 18.601562 -20.316406 18.269531 -20.1875 17.875 -20.1875 L 6.1875 -20.1875 L 6.1875 -12.90625 L 16.6875 -12.90625 C 17.082031 -12.90625 17.414062 -12.765625 17.6875 -12.484375 C 17.96875 -12.210938 18.109375 -11.878906 18.109375 -11.484375 C 18.109375 -11.085938 17.96875 -10.757812 17.6875 -10.5 C 17.414062 -10.238281 17.082031 -10.109375 16.6875 -10.109375 L 6.1875 -10.109375 L 6.1875 -2.796875 L 17.875 -2.796875 C 18.269531 -2.796875 18.601562 -2.65625 18.875 -2.375 C 19.15625 -2.101562 19.296875 -1.769531 19.296875 -1.375 C 19.296875 -0.988281 19.15625 -0.660156 18.875 -0.390625 C 18.601562 -0.128906 18.269531 0 17.875 0 Z M 4.671875 0 "/></g></g></g><g fill="#000000" fill-opacity="1"><g transform="translate(144.605236, 201.017872)"><g><path d="M 12.484375 0.328125 C 10.921875 0.328125 9.414062 0 7.96875 -0.65625 C 6.519531 -1.3125 5.332031 -2.316406 4.40625 -3.671875 C 3.488281 -5.023438 3.03125 -6.675781 3.03125 -8.625 L 3.03125 -21.625 C 3.03125 -22.039062 3.171875 -22.394531 3.453125 -22.6875 C 3.742188 -22.988281 4.097656 -23.140625 4.515625 -23.140625 C 4.929688 -23.140625 5.285156 -22.988281 5.578125 -22.6875 C 5.878906 -22.394531 6.03125 -22.039062 6.03125 -21.625 L 6.03125 -8.53125 C 6.03125 -7.207031 6.328125 -6.082031 6.921875 -5.15625 C 7.523438 -4.238281 8.320312 -3.550781 9.3125 -3.09375 C 10.300781 -2.632812 11.359375 -2.40625 12.484375 -2.40625 C 13.597656 -2.40625 14.648438 -2.632812 15.640625 -3.09375 C 16.628906 -3.550781 17.425781 -4.238281 18.03125 -5.15625 C 18.632812 -6.082031 18.9375 -7.207031 18.9375 -8.53125 L 18.9375 -21.625 C 18.9375 -22.039062 19.078125 -22.394531 19.359375 -22.6875 C 19.640625 -22.988281 19.988281 -23.140625 20.40625 -23.140625 C 20.820312 -23.140625 21.175781 -22.988281 21.46875 -22.6875 C 21.769531 -22.394531 21.921875 -22.039062 21.921875 -21.625 L 21.921875 -8.625 C 21.921875 -6.675781 21.457031 -5.023438 20.53125 -3.671875 C 19.613281 -2.316406 18.429688 -1.3125 16.984375 -0.65625 C 15.535156 0 14.035156 0.328125 12.484375 0.328125 Z M 12.484375 0.328125 "/></g></g></g><g fill="#000000" fill-opacity="1"><g transform="translate(169.557108, 201.017872)"><g/></g></g><g fill="#000000" fill-opacity="1"><g transform="translate(178.115801, 201.017872)"><g><path d="M 13.359375 0.328125 C 11.054688 0.328125 9.035156 -0.175781 7.296875 -1.1875 C 5.566406 -2.195312 4.226562 -3.585938 3.28125 -5.359375 C 2.34375 -7.140625 1.851562 -9.179688 1.8125 -11.484375 C 1.851562 -13.796875 2.34375 -15.835938 3.28125 -17.609375 C 4.226562 -19.390625 5.566406 -20.785156 7.296875 -21.796875 C 9.035156 -22.804688 11.054688 -23.3125 13.359375 -23.3125 C 15.671875 -23.3125 17.6875 -22.804688 19.40625 -21.796875 C 21.125 -20.785156 22.460938 -19.382812 23.421875 -17.59375 C 24.378906 -15.800781 24.878906 -13.765625 24.921875 -11.484375 C 24.878906 -9.203125 24.378906 -7.164062 23.421875 -5.375 C 22.460938 -3.59375 21.125 -2.195312 19.40625 -1.1875 C 17.6875 -0.175781 15.671875 0.328125 13.359375 0.328125 Z M 13.359375 -2.46875 C 15.117188 -2.46875 16.644531 -2.863281 17.9375 -3.65625 C 19.238281 -4.445312 20.226562 -5.519531 20.90625 -6.875 C 21.582031 -8.238281 21.921875 -9.773438 21.921875 -11.484375 C 21.921875 -13.203125 21.582031 -14.738281 20.90625 -16.09375 C 20.226562 -17.457031 19.238281 -18.535156 17.9375 -19.328125 C 16.644531 -20.117188 15.117188 -20.515625 13.359375 -20.515625 C 11.585938 -20.515625 10.054688 -20.117188 8.765625 -19.328125 C 7.484375 -18.535156 6.503906 -17.457031 5.828125 -16.09375 C 5.148438 -14.738281 4.8125 -13.203125 4.8125 -11.484375 C 4.8125 -9.773438 5.148438 -8.238281 5.828125 -6.875 C 6.503906 -5.519531 7.484375 -4.445312 8.765625 -3.65625 C 10.054688 -2.863281 11.585938 -2.46875 13.359375 -2.46875 Z M 13.359375 -2.46875 "/></g></g></g><g fill="#000000" fill-opacity="1"><g transform="translate(204.845249, 201.017872)"><g><path d="M 5.53125 0.328125 C 3.925781 0.328125 2.46875 -0.046875 1.15625 -0.796875 C 0.664062 -1.078125 0.421875 -1.484375 0.421875 -2.015625 C 0.421875 -2.359375 0.535156 -2.664062 0.765625 -2.9375 C 1.003906 -3.21875 1.304688 -3.359375 1.671875 -3.359375 C 1.898438 -3.359375 2.097656 -3.3125 2.265625 -3.21875 C 3.273438 -2.738281 4.296875 -2.5 5.328125 -2.5 C 6.515625 -2.5 7.472656 -2.835938 8.203125 -3.515625 C 8.941406 -4.203125 9.3125 -5.488281 9.3125 -7.375 L 9.3125 -21.625 C 9.3125 -22.039062 9.453125 -22.394531 9.734375 -22.6875 C 10.023438 -22.988281 10.378906 -23.140625 10.796875 -23.140625 C 11.210938 -23.140625 11.566406 -22.988281 11.859375 -22.6875 C 12.160156 -22.394531 12.3125 -22.039062 12.3125 -21.625 L 12.3125 -7.578125 C 12.3125 -4.703125 11.664062 -2.664062 10.375 -1.46875 C 9.09375 -0.269531 7.476562 0.328125 5.53125 0.328125 Z M 5.53125 0.328125 "/></g></g></g><g fill="#000000" fill-opacity="1"><g transform="translate(220.185057, 201.017872)"><g><path d="M 10.015625 0.171875 C 9.585938 0.171875 9.234375 0.03125 8.953125 -0.25 C 8.671875 -0.539062 8.53125 -0.894531 8.53125 -1.3125 L 8.53125 -20.1875 L 1.8125 -20.1875 C 1.414062 -20.1875 1.082031 -20.316406 0.8125 -20.578125 C 0.550781 -20.835938 0.421875 -21.164062 0.421875 -21.5625 C 0.421875 -21.957031 0.550781 -22.289062 0.8125 -22.5625 C 1.082031 -22.84375 1.414062 -22.984375 1.8125 -22.984375 L 18.203125 -22.984375 C 18.597656 -22.984375 18.929688 -22.84375 19.203125 -22.5625 C 19.484375 -22.289062 19.625 -21.957031 19.625 -21.5625 C 19.625 -21.164062 19.484375 -20.835938 19.203125 -20.578125 C 18.929688 -20.316406 18.597656 -20.1875 18.203125 -20.1875 L 11.515625 -20.1875 L 11.515625 -1.3125 C 11.515625 -0.894531 11.367188 -0.539062 11.078125 -0.25 C 10.785156 0.03125 10.429688 0.171875 10.015625 0.171875 Z M 10.015625 0.171875 "/></g></g></g><g fill="#000000" fill-opacity="1"><g transform="translate(240.232141, 201.017872)"><g/></g></g><g fill="#000000" fill-opacity="1"><g transform="translate(248.790833, 201.017872)"><g><path d="M 5.265625 0 C 4.691406 0 4.203125 -0.203125 3.796875 -0.609375 C 3.390625 -1.015625 3.1875 -1.503906 3.1875 -2.078125 L 3.1875 -21.625 C 3.1875 -22.039062 3.328125 -22.394531 3.609375 -22.6875 C 3.898438 -22.988281 4.253906 -23.140625 4.671875 -23.140625 C 5.085938 -23.140625 5.441406 -22.988281 5.734375 -22.6875 C 6.035156 -22.394531 6.1875 -22.039062 6.1875 -21.625 L 6.1875 -3 L 16.953125 -3 C 17.367188 -3 17.722656 -2.847656 18.015625 -2.546875 C 18.316406 -2.253906 18.46875 -1.898438 18.46875 -1.484375 C 18.46875 -1.066406 18.316406 -0.710938 18.015625 -0.421875 C 17.722656 -0.140625 17.367188 0 16.953125 0 Z M 5.265625 0 "/></g></g></g><g fill="#000000" fill-opacity="1"><g transform="translate(267.751621, 201.017872)"><g><path d="M 4.671875 0.171875 C 4.253906 0.171875 3.898438 0.03125 3.609375 -0.25 C 3.328125 -0.539062 3.1875 -0.894531 3.1875 -1.3125 L 3.1875 -21.625 C 3.1875 -22.039062 3.328125 -22.394531 3.609375 -22.6875 C 3.898438 -22.988281 4.253906 -23.140625 4.671875 -23.140625 C 5.085938 -23.140625 5.441406 -22.988281 5.734375 -22.6875 C 6.035156 -22.394531 6.1875 -22.039062 6.1875 -21.625 L 6.1875 -1.3125 C 6.1875 -0.894531 6.035156 -0.539062 5.734375 -0.25 C 5.441406 0.03125 5.085938 0.171875 4.671875 0.171875 Z M 4.671875 0.171875 "/></g></g></g><g fill="#000000" fill-opacity="1"><g transform="translate(277.133258, 201.017872)"><g><path d="M 4.671875 0.171875 C 4.253906 0.171875 3.898438 0.03125 3.609375 -0.25 C 3.328125 -0.539062 3.1875 -0.894531 3.1875 -1.3125 L 3.1875 -20.96875 C 3.1875 -21.5625 3.394531 -22.070312 3.8125 -22.5 C 4.226562 -22.925781 4.734375 -23.140625 5.328125 -23.140625 L 5.765625 -23.140625 C 6.460938 -23.140625 7.066406 -22.8125 7.578125 -22.15625 L 20.25 -3.859375 L 20.25 -21.625 C 20.25 -22.039062 20.390625 -22.394531 20.671875 -22.6875 C 20.960938 -22.988281 21.316406 -23.140625 21.734375 -23.140625 C 22.148438 -23.140625 22.503906 -22.988281 22.796875 -22.6875 C 23.097656 -22.394531 23.25 -22.039062 23.25 -21.625 L 23.25 -1.96875 C 23.25 -1.382812 23.03125 -0.878906 22.59375 -0.453125 C 22.164062 -0.0351562 21.65625 0.171875 21.0625 0.171875 L 20.671875 0.171875 C 20.316406 0.171875 19.984375 0.0859375 19.671875 -0.078125 C 19.367188 -0.242188 19.125 -0.457031 18.9375 -0.71875 L 6.1875 -19.125 L 6.1875 -1.3125 C 6.1875 -0.894531 6.035156 -0.539062 5.734375 -0.25 C 5.441406 0.03125 5.085938 0.171875 4.671875 0.171875 Z M 4.671875 0.171875 "/></g></g></g><g fill="#000000" fill-opacity="1"><g transform="translate(303.566453, 201.017872)"><g><path d="M 4.671875 0.171875 C 4.253906 0.171875 3.898438 0.03125 3.609375 -0.25 C 3.328125 -0.539062 3.1875 -0.894531 3.1875 -1.3125 L 3.1875 -21.625 C 3.1875 -22.039062 3.328125 -22.394531 3.609375 -22.6875 C 3.898438 -22.988281 4.253906 -23.140625 4.671875 -23.140625 C 5.085938 -23.140625 5.441406 -22.988281 5.734375 -22.6875 C 6.035156 -22.394531 6.1875 -22.039062 6.1875 -21.625 L 6.1875 -11.15625 L 17.453125 -22.625 C 17.753906 -22.96875 18.125 -23.140625 18.5625 -23.140625 C 18.9375 -23.140625 19.257812 -23.015625 19.53125 -22.765625 C 19.8125 -22.515625 19.953125 -22.203125 19.953125 -21.828125 C 19.953125 -21.390625 19.832031 -21.050781 19.59375 -20.8125 L 11.984375 -13.234375 L 20.703125 -2.234375 C 20.941406 -1.929688 21.0625 -1.613281 21.0625 -1.28125 C 21.09375 -0.882812 20.960938 -0.539062 20.671875 -0.25 C 20.390625 0.03125 20.039062 0.171875 19.625 0.171875 C 19.113281 0.171875 18.71875 -0.0234375 18.4375 -0.421875 L 9.9375 -11.265625 L 6.1875 -7.46875 L 6.1875 -1.3125 C 6.1875 -0.894531 6.035156 -0.539062 5.734375 -0.25 C 5.441406 0.03125 5.085938 0.171875 4.671875 0.171875 Z M 4.671875 0.171875 "/></g></g></g><g clip-path="url(#88ca226da3)"><g clip-path="url(#520469f919)"><path fill="#0c1df7" d="M 337.5 198 L 348.421875 198 L 348.421875 208.921875 L 337.5 208.921875 Z M 337.5 198 " fill-opacity="1" fill-rule="nonzero"/></g></g><g clip-path="url(#9f3d790f53)"><g clip-path="url(#ebfd5e38c8)"><path fill="url(#3816f59db5)" d="M 23.160156 153.398438 L 23.160156 221.597656 L 88.148438 221.597656 L 88.148438 153.398438 Z M 23.160156 153.398438 " fill-rule="nonzero"/></g></g></svg>